# xmcd
#
# Track frame offsets:
#	150
#	14398
#	30222
#	57518
#	81573
#	94411
#	104726
#	124866
#	139530
#	153290
#	167499
#	179588
#	191987
#	206302
#	223293
#	238981
#
# Disc length: 3346
#
# Revision: 1
# Processed by: cddbd v1.5.1PL0 Copyright (c) Steve Scherf et al.
# Submitted via: audiograbber 1.82.01
# Normalized: r0:DSETVAR1
#
DISCID=ec0d1010
DTITLE=Various Artist - The Story Of The Blues Vol. 3
DYEAR=1989
DGENRE=
TTITLE0=Joe Liggins and The Honeydrippers - I´ve got a right to cry
TTITLE1=Eddie "Cleanhead" Vinson - Cleanhead Blues
TTITLE2=Bishop "Gatemouth" Moore - Beale street ain´t Beale street
TTITLE3=Louis Jordan - Saturday night Fish frey
TTITLE4=Ray Charles - Rockin´ Chair Blues
TTITLE5=Richard Berry - Louie Louie
TTITLE6=Joe Turner - Nothin´From Nothin´Blues
TTITLE7=Johhny Otis - Fannie Mae
TTITLE8=Roy Milton - Hush
TTITLE9=Little Walter Juke - You Better Watch Yourself
TTITLE10=Bo Diddley - Walkin´And Talkin´
TTITLE11=Amos Milburn - C. C. Rider (See See Rider)
TTITLE12=Charles Brown - Let The Sunshine in My Life
TTITLE13=Pee Wee Crayton - Don´t forget to close the Door
TTITLE14=Joe Liggins and The Honeydrippers - Goin´back to L.A
TTITLE15=Bishop "Gatemouth" Moore - Did you Ever Love a Woman
EXTD=
EXTT0=
EXTT1=
EXTT2=
EXTT3=
EXTT4=
EXTT5=
EXTT6=
EXTT7=
EXTT8=
EXTT9=
EXTT10=
EXTT11=
EXTT12=
EXTT13=
EXTT14=
EXTT15=
PLAYORDER=
